HIERARCHY
ROOT Joint1
{
	OFFSET 0.000000 0.000000 0.000000
	CHANNELS 6 Xposition Yposition Zposition Xrotation Yrotation Zrotation
	JOINT Joint2
	{
		OFFSET -0.000000 0.000000 1.456275
		CHANNELS 6 Xposition Yposition Zposition Xrotation Yrotation Zrotation
		JOINT Joint3
		{
			OFFSET -0.000000 0.000002 1.471446
			CHANNELS 6 Xposition Yposition Zposition Xrotation Yrotation Zrotation
			JOINT Joint4
			{
				OFFSET 0.625745 0.000000 0.917755
				CHANNELS 6 Xposition Yposition Zposition Xrotation Yrotation Zrotation
				JOINT Joint5
				{
					OFFSET -0.629534 0.000001 0.940221
					CHANNELS 6 Xposition Yposition Zposition Xrotation Yrotation Zrotation
					JOINT Joint6
					{
						OFFSET -0.000001 0.113772 1.960660
						CHANNELS 6 Xposition Yposition Zposition Xrotation Yrotation Zrotation
						JOINT Joint7
						{
							OFFSET -0.669733 -0.113771 0.388340
							CHANNELS 6 Xposition Yposition Zposition Xrotation Yrotation Zrotation
							End Site
							{
								OFFSET 0.005509 0.005509 0.438980
							}
						}
					}
				}
			}
		}
	}
}
MOTION
Frames: 24
Frame Time: 0.041667
0.000000 0.000000 0.000000 -0.000000 1.019410 17.845000 -0.000000 -0.000000 1.456275 0.000000 8.317775 0.000000 -0.000000 0.000002 1.471446 0.000000 -1.133458 12.084141 0.625744 0.000000 0.917755 0.000004 138.601805 0.000000 -0.629534 0.000001 0.940221 -0.000001 1.709734 151.617495 -0.000002 0.113772 1.960661 -88.303889 46.770468 -0.000002 -0.669733 -0.113771 0.388341 -1.050440 3.506180 154.793916 
0.000000 0.000000 0.000000 -0.000000 1.019410 17.831259 -0.000000 0.000000 1.456275 -0.000000 8.276763 0.000002 -0.000000 0.000002 1.471446 -0.000000 -1.133459 12.074828 0.625745 0.000000 0.917755 0.000002 138.599032 0.000002 -0.629534 0.000001 0.940221 -0.000001 1.709736 151.500822 -0.000001 0.113772 1.960660 -88.303882 46.803718 -0.000002 -0.669733 -0.113771 0.388340 -1.050187 3.506274 154.778644 
0.000000 0.000000 0.000000 -0.000000 1.019410 17.808139 -0.000000 0.000000 1.456275 0.000000 8.207753 -0.000001 -0.000000 0.000002 1.471446 -0.000000 -1.133460 12.059139 0.625744 0.000000 0.917755 -0.000000 138.594415 -0.000000 -0.629534 0.000001 0.940221 0.000001 1.709736 151.304482 -0.000001 0.113772 1.960660 -88.303889 46.859653 0.000001 -0.669733 -0.113771 0.388340 -1.049757 3.506427 154.752989 
0.000000 0.000000 0.000000 -0.000000 1.019410 17.775458 -0.000000 -0.000000 1.456275 0.000000 8.110203 0.000001 -0.000000 0.000002 1.471446 -0.000000 -1.133459 12.036971 0.625744 0.000000 0.917755 0.000000 138.587871 -0.000003 -0.629534 0.000001 0.940221 -0.000002 1.709737 151.026930 -0.000001 0.113772 1.960661 -88.303896 46.938733 -0.000000 -0.669733 -0.113771 0.388340 -1.049150 3.506645 154.716707 
0.000000 0.000000 0.000000 -0.000000 1.019410 17.733034 -0.000000 0.000000 1.456275 0.000000 7.983576 0.000000 -0.000000 0.000002 1.471445 0.000000 -1.133460 12.008194 0.625745 0.000000 0.917755 0.000004 138.579361 0.000001 -0.629533 0.000001 0.940221 -0.000001 1.709736 150.666665 -0.000001 0.113772 1.960660 -88.303889 47.041377 -0.000002 -0.669733 -0.113771 0.388340 -1.048364 3.506926 154.669606 
0.000000 0.000000 0.000000 -0.000000 1.019410 17.680687 -0.000000 -0.000000 1.456275 -0.000000 7.827333 -0.000003 -0.000000 0.000002 1.471446 -0.000000 -1.133460 11.972688 0.625745 0.000000 0.917755 0.000004 138.568883 -0.000001 -0.629534 0.000001 0.940221 -0.000000 1.709736 150.222115 -0.000001 0.113772 1.960660 -88.303889 47.168019 -0.000002 -0.669733 -0.113771 0.388340 -1.047392 3.507275 154.611495 
0.000000 0.000000 0.000000 -0.000000 1.019410 17.618242 -0.000000 -0.000000 1.456275 0.000000 7.640934 -0.000000 -0.000000 0.000002 1.471446 0.000000 -1.133458 11.930326 0.625745 0.000000 0.917755 0.000004 138.556371 -0.000001 -0.629534 0.000001 0.940221 -0.000000 1.709735 149.691792 -0.000001 0.113772 1.960660 -88.303889 47.319120 -0.000000 -0.669733 -0.113771 0.388340 -1.046228 3.507685 154.542182 
0.000000 0.000000 0.000000 -0.000000 1.019410 17.545509 -0.000000 0.000000 1.456275 -0.000000 7.423841 0.000001 -0.000000 0.000002 1.471446 -0.000000 -1.133458 11.880988 0.625745 0.000000 0.917755 0.000003 138.541809 -0.000002 -0.629533 0.000001 0.940221 0.000000 1.709738 149.074138 -0.000001 0.113772 1.960660 -88.303889 47.495097 -0.000003 -0.669733 -0.113771 0.388341 -1.044880 3.508164 154.461450 
0.000000 0.000000 0.000000 -0.000000 1.019410 17.462313 -0.000000 -0.000000 1.456275 0.000000 7.175516 -0.000001 -0.000000 0.000002 1.471445 -0.000000 -1.133458 11.824557 0.625745 0.000000 0.917755 0.000004 138.525129 -0.000002 -0.629534 0.000001 0.940221 -0.000001 1.709733 148.367596 -0.000001 0.113772 1.960661 -88.303889 47.696393 -0.000002 -0.669733 -0.113771 0.388340 -1.043330 3.508706 154.369078 
0.000000 0.000000 0.000000 -0.000000 1.019410 17.368474 -0.000000 -0.000000 1.456275 0.000000 6.895418 -0.000000 -0.000000 0.000002 1.471445 0.000000 -1.133457 11.760901 0.625745 0.000000 0.917755 0.000001 138.506333 -0.000002 -0.629534 0.000001 0.940221 -0.000002 1.709735 147.570690 -0.000001 0.113773 1.960660 -88.303889 47.923432 -0.000002 -0.669733 -0.113771 0.388340 -1.041584 3.509318 154.264918 
0.000000 0.000000 0.000000 -0.000000 1.019410 17.263807 -0.000000 0.000000 1.456275 0.000000 6.583010 -0.000000 -0.000000 0.000002 1.471446 -0.000000 -1.133460 11.689903 0.625745 0.000000 0.917754 0.000004 138.485364 -0.000001 -0.629534 0.000001 0.940221 -0.000002 1.709738 146.681837 -0.000001 0.113772 1.960661 -88.303889 48.176678 -0.000004 -0.669733 -0.113771 0.388340 -1.039635 3.509997 154.148736 
0.000000 0.000000 0.000000 -0.000000 1.019410 17.148134 -0.000000 0.000000 1.456275 0.000000 6.237752 0.000000 -0.000000 0.000002 1.471445 -0.000000 -1.133458 11.611443 0.625744 0.000000 0.917755 0.000005 138.462196 -0.000000 -0.629534 0.000001 0.940221 -0.000001 1.709732 145.699533 -0.000001 0.113772 1.960661 -88.303889 48.456545 -0.000000 -0.669733 -0.113771 0.388340 -1.037478 3.510740 154.020315 
0.000000 0.000000 0.000000 -0.000000 1.019410 17.021279 -0.000000 0.000000 1.456275 0.000000 5.859104 -0.000000 -0.000000 0.000002 1.471446 -0.000000 -1.133459 11.525388 0.625744 0.000000 0.917755 0.000000 138.436788 -0.000002 -0.629534 0.000001 0.940221 -0.000001 1.709736 144.622221 -0.000001 0.113772 1.960661 -88.303889 48.763476 -0.000004 -0.669733 -0.113771 0.388340 -1.035114 3.511550 153.879490 
0.000000 0.000000 0.000000 -0.000000 1.019410 16.883055 -0.000000 -0.000000 1.456275 -0.000000 5.446529 0.000001 -0.000000 0.000002 1.471445 -0.000000 -1.133459 11.431624 0.625745 0.000000 0.917755 0.000005 138.409098 -0.000002 -0.629533 0.000001 0.940221 -0.000001 1.709734 143.448371 -0.000001 0.113772 1.960661 -88.303889 49.097917 -0.000000 -0.669733 -0.113771 0.388340 -1.032538 3.512429 153.726070 
0.000000 0.000000 0.000000 -0.000000 1.019410 16.733284 -0.000000 -0.000000 1.456275 -0.000000 4.999488 0.000001 -0.000000 0.000002 1.471445 -0.000000 -1.133458 11.330034 0.625744 0.000000 0.917755 0.000006 138.379100 -0.000001 -0.629534 0.000001 0.940221 0.000000 1.709736 142.176480 -0.000001 0.113772 1.960660 -88.303882 49.460289 -0.000004 -0.669733 -0.113771 0.388340 -1.029739 3.513373 153.559796 
0.000000 0.000000 0.000000 -0.000000 1.019410 16.571945 -0.000000 0.000000 1.456275 -0.000000 4.517923 -0.000001 -0.000000 0.000002 1.471445 -0.000000 -1.133459 11.220590 0.625744 0.000000 0.917755 0.000003 138.346793 -0.000003 -0.629533 0.000001 0.940221 -0.000002 1.709736 140.806358 -0.000001 0.113772 1.960660 -88.303889 49.850648 -0.000002 -0.669733 -0.113771 0.388340 -1.026717 3.514375 153.380695 
0.000000 0.000000 0.000000 -0.000000 1.019410 16.399670 -0.000000 0.000000 1.456275 0.000000 4.003716 -0.000001 -0.000000 0.000002 1.471445 -0.000000 -1.133459 11.103739 0.625744 0.000000 0.917755 0.000005 138.312273 -0.000002 -0.629534 0.000001 0.940221 -0.000001 1.709738 139.343359 -0.000001 0.113772 1.960661 -88.303889 50.267467 0.000001 -0.669733 -0.113771 0.388340 -1.023494 3.515438 153.189463 
0.000000 0.000000 0.000000 -0.000000 1.019410 16.217255 -0.000000 -0.000000 1.456275 -0.000000 3.459222 0.000000 -0.000000 0.000002 1.471445 -0.000000 -1.133460 10.979995 0.625745 0.000000 0.917755 0.000002 138.275732 -0.000002 -0.629534 0.000001 0.940221 -0.000002 1.709738 137.794203 -0.000001 0.113772 1.960660 -88.303889 50.708837 -0.000002 -0.669733 -0.113771 0.388340 -1.020076 3.516554 152.986948 
0.000000 0.000000 0.000000 -0.000000 1.019410 16.025480 -0.000000 0.000000 1.456275 -0.000000 2.886807 0.000000 -0.000000 0.000002 1.471446 -0.000000 -1.133459 10.849903 0.625744 0.000000 0.917755 0.000004 138.237332 0.000000 -0.629533 0.000001 0.940220 0.000001 1.709735 136.165586 -0.000001 0.113772 1.960660 -88.303889 51.172836 0.000001 -0.669733 -0.113771 0.388340 -1.016481 3.517715 152.774065 
0.000000 0.000000 0.000000 -0.000000 1.019410 15.825138 -0.000000 -0.000000 1.456275 0.000000 2.288829 0.000001 -0.000000 0.000002 1.471445 -0.000000 -1.133459 10.714012 0.625744 0.000000 0.917755 0.000007 138.197198 -0.000001 -0.629534 0.000001 0.940221 -0.000002 1.709734 134.464254 -0.000001 0.113772 1.960660 -88.303882 51.657561 -0.000004 -0.669733 -0.113771 0.388340 -1.012709 3.518909 152.551660 
0.000000 0.000000 0.000000 -0.000000 1.019410 15.617028 0.000000 -0.000000 1.456275 0.000000 1.667649 -0.000001 -0.000000 0.000002 1.471446 -0.000000 -1.133459 10.572840 0.625745 0.000000 0.917755 0.000006 138.155507 -0.000002 -0.629534 0.000001 0.940221 0.000001 1.709735 132.696902 -0.000001 0.113772 1.960661 -88.303889 52.161093 -0.000003 -0.669733 -0.113771 0.388340 -1.008793 3.520135 152.320636 
0.000000 0.000000 0.000000 -0.000000 1.019410 15.402039 -0.000000 0.000000 1.456275 0.000000 1.025944 -0.000001 -0.000000 0.000002 1.471446 -0.000000 -1.133459 10.427010 0.625745 0.000000 0.917755 0.000003 138.112436 -0.000000 -0.629534 0.000001 0.940221 -0.000000 1.709735 130.871165 -0.000001 0.113772 1.960661 -88.303896 52.681266 0.000001 -0.669733 -0.113771 0.388339 -1.004746 3.521388 152.081962 
0.000000 0.000000 0.000000 -0.000000 1.019410 15.181492 -0.000000 0.000000 1.456275 -0.000000 0.367654 0.000000 -0.000000 0.000002 1.471445 -0.000000 -1.133459 10.277410 0.625745 0.000000 0.917755 0.000002 138.068258 0.000003 -0.629534 0.000001 0.940221 -0.000001 1.709733 128.998217 -0.000001 0.113772 1.960660 -88.303889 53.214871 0.000003 -0.669733 -0.113771 0.388340 -1.000588 3.522657 151.837154 
0.000000 0.000000 0.000000 -0.000000 1.019410 14.956817 -0.000000 0.000000 1.456275 -0.000000 -0.302968 0.000000 -0.000000 0.000002 1.471446 -0.000000 -1.133459 10.125002 0.625745 0.000000 0.917755 0.000003 138.023247 -0.000001 -0.629534 0.000001 0.940220 -0.000000 1.709733 127.090204 -0.000001 0.113772 1.960661 -88.303889 53.758486 -0.000005 -0.669734 -0.113771 0.388340 -0.996343 3.523923 151.587716 
